<svg id="svg5" width="210mm" height="297mm" version="1.1" viewBox="0 0 210 297" xmlns="http://www.w3.org/2000/svg"><g id="layer1"><path id="triskelion" d="m2.4-32c-11-4-24 9.3-18 20 4.2 9.3 20 8.9 22-2 2.7-8.9-12-16-15-6.2-4.7 7.4 11 9.9 6.1 2.9-8.5 5-0.69-11 4.9-3.6 6.6 7-4.3 18-12 12-9.5-5.8-4.1-21 6.8-21 11-0.95 18 13 12 22-5.1 9.5-17 8.4-25 5.8-12-0.78-22 15-15 25 5.1 9 20 9.3 25-0.33 5.1-8.6-4.4-21-14-16-8.6 2.7-6.7 18 3 16 7.1-0.038 5.5-13-0.76-8 4.9 2.3-0.11 8.2-4.2 4.8-5.6-8.2 8.1-16 13-7.9 6.7 8.8-5.4 21-15 15-9-4.3-9.6-18-1.4-23 8.5-6.4 22-1.6 25 8.8 1.2 7 5.6 14 13 15 9.8 3.5 22-4.6 21-15 0.54-11-14-18-22-11-8.2 5.9-2.9 21 7.5 19 8.8-0.28 9.1-15-0.1-14-7.8-0.68-0.57 12-0.26 3.4 12-0.48-0.19 14-6.2 6.5-7.4-6.6 2.4-18 11-15 11 3.4 9.4 21-1.6 24-11 3.5-22-8.2-19-19 1.7-8.1 12-12 12-21 0.57-7.6-4.3-16-12-18zm-0.15 33c-0.4 8.2-10 0.51 0 0z" color="#000000" fill-rule="evenodd" stroke-linecap="round" stroke-width=".31" style="-inkscape-stroke:none"/></g></svg>
