<svg id="svg482" width="210mm" height="297mm" version="1.1" viewBox="0 0 210 297" xml:space="preserve" xmlns="http://www.w3.org/2000/svg"><g id="ankh"><path id="ankh_object" d="m15 2.5-13-.91 2.7 24h-9.2l2.7-24-13 .91v-6l11 1.4c-2.1-3.2-5.5-8.8-5.5-14 0-5.5 3.6-11 8.6-11s8.6 5.2 8.6 11c0 5.3-3.4 11-5.5 14l11-1.4zm-18-24c-.52.65-.91 1.5-1.2 2.5-.26.97-.45 1.9-.45 3 0 1.9.52 4.2 1.7 6.7.97 2.3 2.3 4.4 3.4 6.2 1.1-1.8 2.4-3.9 3.4-6.2 1.1-2.5 1.7-4.8 1.7-6.7 0-.97-.13-2-.45-3-.26-.91-.71-1.8-1.2-2.5-.65-.84-1.8-1.9-3.4-1.9-1.7 0-2.9 1-3.5 1.9z" fill="#0f0f0f" stroke-width=".065"/></g><g id="triskele"><path id="path1166" d="m13 6.7c.7-5.6 7.9 3.3 2 4.8-6.8 4.2-13-6.6-7.3-11 6-6.6 18-.48 17 8 .16 8.9-11 15-18 10-5.4-2.2-7.9-8-8.6-13-2.1-8-15-11-19-3.3-4.8 5.8 1.8 16 9 13 7.2-1.9 1-15-3.1-7.4.79 1.9 4.7 1.1 1.7 3.9-7.3 2.4-7.2-9.6-.45-9.7 8.2-1.7 12 10 5.8 15-6.4 6.3-18 .63-18-7.9-1.4-9.9 10-18 19-13 7 3.2 16-2.3 16-10 .39-7.7-11-12-15-5.8-4.7 4.7 3.1 13 7.5 7.7 2.1-4-3-3.7-3.7-2-4.8-5.7 8.6-7.9 7.7-.29.75 8.4-12 11-15 3.2-4.9-7.8 3.8-18 12-15 8.8 1.4 13 12 8.4 20-2.1 4.5-8 6.3-8.2 12-1.4 6.7 4.7 14 12 12 7.3-.84 9.8-13 2.1-15-6-3.1-10 8.8-2.6 7.2l.11-.42-.36-1.3z" stroke-width=".009"/></g>
<g id="sun" fill="none" stroke="#000" stroke-linecap="round" stroke-miterlimit="0" stroke-width=".53"><path id="path3966" d="m20-.28a20 20 0 01-20 20 20 20 0 01-20-20 20 20 0 0120-20 20 20 0 0120 20z"/><path id="path4089" d="m35-.28c-8.5 3.2-21 5.7-2.8 14-7.1.89-22-3-7.6 11-8.2-3.6-19-11-11 7.6-6.1-6.4-14-18-14 2.8-3.5-6.2-4.8-21-14-2.8-.036-7.2 4.2-20-11-7.6 10-15 3.3-15-7.6-11-1.8-4.2 9.6-8.5 9.6-13 0-4.9-9.4-14-9.4-14s23 13 6.2-9.8c8.9 5.3 18 6 13-9.8 5.9 9.4 12 16 14-2.8 2.2 10 4.7 19 14 2.8-1.9 11-1.5 19 11 7.6-5.4 9.4-8.3 17 7.6 11-6 6.4-19 15 2.8 14z"/></g></svg>
