<svg id="svg482" width="210mm" height="297mm" version="1.1" viewBox="0 0 210 297" xml:space="preserve" xmlns="http://www.w3.org/2000/svg"><a id="ankh"><path id="ankh_object" d="m17 2.8-15-1 3.1 28h-11l3.1-28-15 1v-7l13 1.6c-2.4-3.7-6.4-10-6.4-16 0-6.4 4.1-12 10-12 5.8 0 10 6 10 12 0 6.1-3.9 13-6.4 16l13-1.6zm-21-28c-.6.75-1 1.7-1.4 2.8-.3 1.1-.52 2.2-.52 3.4 0 2.2.6 4.8 1.9 7.7 1.1 2.6 2.6 5.1 4 7.1 1.3-2 2.8-4.5 4-7.1 1.3-2.9 1.9-5.5 1.9-7.7 0-1.1-.15-2.3-.52-3.4-.3-1-.82-2-1.4-2.8-.75-.97-2.1-2.2-3.9-2.2-1.9 0-3.3 1.2-4 2.2z" fill="#0f0f0f" stroke-width=".075"/></a><g id="triskele"><path id="path1166" d="m16 8.8c.87-6.9 9.8 4 2.4 6-8.5 5.2-17-8.2-9.1-14 7.5-8.3 22-.6 21 10 .19 11-13 18-22 13-6.7-2.8-9.8-9.9-11-17-2.6-9.9-18-13-24-4-6 7.2 2.2 20 11 16 8.9-2.3 1.3-19-3.8-9.2.98 2.4 5.9 1.3 2.1 4.8-9.1 3-8.9-12-.55-12 10-2.1 15 13 7.2 18-7.9 7.8-22 .78-23-9.8-1.7-12 13-22 24-17 8.7 4 20-2.8 20-13 .48-9.6-13-15-19-7.2-5.8 5.9 3.9 16 9.3 9.6 2.6-5-3.8-4.6-4.6-2.4-6-7.1 11-9.8 9.6-.35.93 10-15 13-19 4-6.1-9.7 4.7-22 15-19 11 1.7 16 15 10 24-2.6 5.6-10 7.8-10 15-1.7 8.3 5.8 18 15 15 9.1-1 12-16 2.6-18-7.5-3.9-13 11-3.2 9l.14-.52-.45-1.6z" stroke-width=".011"/></g>
<g id="sun" fill="none" stroke="#000" stroke-linecap="round" stroke-miterlimit="0" stroke-width=".86"><path id="path3966" d="m32-.31a33 33 0 01-33 33 33 33 0 01-33-33 33 33 0 0133-33 33 33 0 0133 33z"/><path id="path4089" d="m57-.31c-14 5.3-34 9.3-4.6 23-12 1.5-36-4.9-12 18-13-5.9-30-16-17 15-10-10-24-27-25 6.6-5.6-10-11-36-26-5.8-.059-12 7.4-35-18-14 17-25 4.8-28-12-18 2.5-15 19-16 19-24 0-8-15-22-15-22s37 21 10-16c15 8.7 29 9.8 20-16 9.6 15 19 26 23-4.6 3.6 17 7.7 31 23 4.6-3.2 18-2.5 30 18 12-8.8 15-13 28 12 18-9.7 10-31 24 4.6 23z"/></g></svg>
