<svg id="svg196" width="210mm" height="297mm" version="1.1" viewBox="0 0 210 297" xmlns="http://www.w3.org/2000/svg"><g id="g939" fill="#fafafa" stroke="#000" stroke-width="1.1"><path id="path132" d="m61-155-1.5 5.3c3 1.4 6.1 2.9 9.3 4.4l2-6.9zm-9.8 34-97 328 11 2.1 96-324z" stroke-linecap="round" stroke-miterlimit="0"/><path id="path134" d="m74-143-11 35c-44-40-128-48-161-50 60-31 153 5.8 172 15z"/></g><g id="g1045" stroke="#000"><g id="g1147"><path id="path138" d="m-5.9-108c0 13-6.3 28-17 28s-20-5.3-20-18c0-13 9.5-28 20-28s17 5.6 17 18z" stroke-linecap="round" stroke-miterlimit="0" stroke-width="1.5"/><path id="path140" d="m0.69-108c0 13 6.3 28 17 28 11 0 20-5.3 20-18 0-13-9.5-28-20-28-11 0-17 5.6-17 18z" stroke-linecap="round" stroke-miterlimit="0" stroke-width="1.5"/><path id="path142" d="m2-77c0.25 3-0.72 3.2-2 3.8-1.2 0.67-2.7-1.2-2.7-1.2s-1.3 1.9-2.6 1.2-2.2-0.88-2-3.8c0.25-3 4.6-7.7 4.6-7.7s4.4 4.7 4.6 7.7z" stroke-width=".046px"/></g><a id="a1162"><path id="path146" d="m-60-97c-2.2 18 25 31 37 22" fill="none" stroke-width="1.1"/><path id="path148" d="m56-99c1.3 10-27 33-41 25" fill="none" stroke-width="1.1"/><path id="path150" d="m-32-72c1.5 8.9 3.7 8.6 8.5 11 6.4 3.5 49 5.5 49-12" fill="none" stroke-width="1.1"/><path id="path152" d="m-18-59 0.27-6" fill="none" stroke-width="1.1"/><path id="path154" d="m-3.4-58 0.18-6.2" fill="none" stroke-width="1.1"/><path id="path156" d="m10-59 0.17-7.1" fill="none" stroke-width="1.1"/><path id="path158" d="m3.5-125c-4.4-3.5-3.3-5.9-2.5-8.4" fill="none" stroke-width="1.1"/><path id="path160" d="m-7.9-125c4.7-2.9 3.8-5.5 3.3-8" fill="none" stroke-width="1.1"/><path id="path162" d="m58-77c1.5-66-60-82-60-82-38 23-60 49-62 83-1.1 27 62 28 59 36 7.1-16 63-17 63-37z" fill="none" stroke-width="1.1"/><path id="path182" d="m91 49a6.1 19 14 0 1-11 16 6.1 19 14 0 1-1.1-20 6.1 19 14 0 1 11-16 6.1 19 14 0 1 1.1 20z" fill="#fafafa" stroke-linecap="round" stroke-miterlimit="0" stroke-width="1.2"/><path id="path168" d="m-4.3-40c-82-11-73-31-72-34 10-54 38-83 72-105 50 17 71 52 80 104-8.7 30-47 31-80 35z" fill="none" stroke-width="1.1"/><path id="path170" d="m-31-44c-5.5 0.91-13 13-13 19-4.2 40-14 116-28 138l8.1-2.3 4.7 8.4 7-5.4 5 7.7" fill="none" stroke-width="1.1"/><path id="path172" d="m31-44c18 182 76 232 69 232l-36-8.2c-3.9 12-19 24-24 18-10-11-19 2.5-37 3.7-12 0.82-29-20-39-9.2-14 14-39 7.7-52 9.7 54-39 49-163 58-247" fill="none" stroke-width="1.1"/></a><g id="g1142"><path id="path174" d="m32-43c6.7-0.7 16 7.8 20 21 8.9 26 33 53 39 51" fill="none" stroke-width="1.1"/><path id="path176" d="m38 6.5c9.9 24 20 38 42 59" fill="none" stroke-width="1.1"/><path id="path184" d="m93 41c3.6 1 8.1 1 8.5-0.98 0.5-2-0.54-4.2-4.1-5.2-3.6-1-8.3-0.45-8.8 1.5-0.5 2 0.79 3.6 4.4 4.6z" fill="#fff" stroke-linecap="round" stroke-miterlimit="0"/><path id="path186" d="m92 47c3.8 1 8.6 0.99 9.1-1 0.52-2-0.6-4.2-4.4-5.2-3.8-1-8.8-0.42-9.3 1.6-0.52 2 0.86 3.7 4.7 4.7z" fill="#fff" stroke-linecap="round" stroke-miterlimit="0" stroke-width="1.1"/><path id="path188" d="m90 52c3.5 0.73 7.9 0.52 8.3-1.3 0.39-1.8-0.73-3.7-4.3-4.5-3.5-0.73-8.2 0.0012-8.6 1.8-0.39 1.8 0.95 3.2 4.5 4z" fill="#fff" stroke-linecap="round" stroke-miterlimit="0" stroke-width=".99"/><path id="path190" d="m84 39c-0.89 4.1-0.93 9.2 0.78 9.7 1.7 0.55 3.6-0.66 4.5-4.7 0.89-4.1 0.45-9.5-1.3-10-1.7-0.55-3.1 0.94-4 5z" fill="#fff" stroke-linecap="round" stroke-miterlimit="0"/></g></g></svg>
