<?xml version="1.0" encoding="UTF-8" standalone="no"?>
<svg
   width="210mm"
   height="297mm"
   version="1.1"
   viewBox="0 0 210 297"
   id="svg196"
   sodipodi:docname="viikatemies_5.svg"
   inkscape:version="1.2.1 (2ed6d7ae0b, 2022-08-22, custom)"
   xmlns:inkscape="http://www.inkscape.org/namespaces/inkscape"
   xmlns:sodipodi="http://sodipodi.sourceforge.net/DTD/sodipodi-0.dtd"
   xmlns="http://www.w3.org/2000/svg"
   xmlns:svg="http://www.w3.org/2000/svg">
  <sodipodi:namedview
     id="namedview165"
     pagecolor="#ffffff"
     bordercolor="#999999"
     borderopacity="1"
     inkscape:showpageshadow="0"
     inkscape:pageopacity="0"
     inkscape:pagecheckerboard="0"
     inkscape:deskcolor="#d1d1d1"
     inkscape:document-units="mm"
     showgrid="false"
     inkscape:zoom="0.53584806"
     inkscape:cx="91.443831"
     inkscape:cy="99.841734"
     inkscape:window-width="3366"
     inkscape:window-height="1384"
     inkscape:window-x="0"
     inkscape:window-y="0"
     inkscape:window-maximized="1"
     inkscape:current-layer="svg196" />
  <defs
     id="defs200" />
  <g
     id="g939">
    <path
       d="m 61.434922,-154.63411 -1.521929,5.31216 c 3.039708,1.40055 6.132785,2.86209 9.268148,4.36615 l 1.974895,-6.89325 z m -9.845214,34.36419 -97.433853,328.39644 10.526739,2.13533 95.629206,-324.25964 z"
       stroke-linecap="round"
       stroke-miterlimit="0"
       id="path132"
       style="fill:#fafafa;stroke:#000000;stroke-width:1.08751" />
    <path
       d="m 74.381512,-143.33159 -10.957909,34.60357 c -44.46679,-39.70368 -127.645991,-48.45705 -161.256015,-49.84866 60.224969,-30.76983 152.845565,5.76542 172.209556,15.24384 z"
       id="path134"
       style="fill:#fafafa;stroke:#000000;stroke-width:1.08751" />
  </g>
  <g
     id="g1045">
    <g
       id="g1147">
      <path
         d="m -5.8737371,-107.82946 c 0,12.684878 -6.3433939,27.609885 -17.1744179,27.609885 -10.831024,0 -20.380921,-5.27547 -20.380921,-17.960347 0,-12.684878 9.549897,-27.975688 20.380921,-27.975688 10.831024,0 17.1744179,5.641 17.1744179,18.32615 z"
         stroke-linecap="round"
         stroke-miterlimit="0"
         stroke-width="1.45404"
         id="path138"
         style="stroke:#000000" />
      <path
         d="m 0.69159519,-108.10245 c 0,12.684882 6.34339401,27.609888 17.17441781,27.609888 10.831024,0 20.380921,-5.275469 20.380921,-17.960347 0,-12.684881 -9.549897,-27.975681 -20.380921,-27.975681 -10.8310238,0 -17.17441781,5.64099 -17.17441781,18.32587 z"
         stroke-linecap="round"
         stroke-miterlimit="0"
         stroke-width="1.45404"
         id="path140"
         style="stroke:#000000" />
      <path
         d="m 1.9855526,-76.545173 c 0.24678,2.967094 -0.724234,3.17238 -1.9740494,3.846111 -1.2498154,0.673732 -2.6709574,-1.185991 -2.6709574,-1.185991 0,0 -1.326279,1.854509 -2.5760944,1.18075 -1.2498154,-0.673759 -2.2208021,-0.878963 -1.9740494,-3.846111 0.2467801,-2.967093 4.5976436,-7.706144 4.5976436,-7.706144 0,0 4.3508634,4.744237 4.5976435,7.711331 z"
         stroke-width="0.0459601px"
         id="path142"
         style="stroke:#000000" />
    </g>
    <a
       id="a1162">
      <path
         d="m -59.725841,-96.773494 c -2.181574,18.140518 25.213333,30.776531 36.550201,22.156154"
         id="path146"
         style="fill:none;stroke:#000000;stroke-width:1.11234" />
      <path
         d="m 55.97415,-98.7117 c 1.346125,10.056287 -26.672993,33.135137 -41.450314,24.62723"
         id="path148"
         style="fill:none;stroke:#000000;stroke-width:1.11234" />
      <path
         d="m -32.115957,-71.795203 c 1.548654,8.940045 3.676313,8.631297 8.537662,11.298924 6.378882,3.500236 49.159461,5.494405 49.096674,-11.892397"
         id="path150"
         style="fill:none;stroke:#000000;stroke-width:1.11234" />
      <path
         d="m -17.60125,-58.773733 0.274843,-6.021542"
         id="path152"
         style="fill:none;stroke:#000000;stroke-width:1.11234" />
      <path
         d="m -3.4086664,-57.845578 0.1771684,-6.18588"
         id="path154"
         style="fill:none;stroke:#000000;stroke-width:1.11234" />
      <path
         d="m 10.434494,-59.4562 0.174438,-7.050429"
         id="path156"
         style="fill:none;stroke:#000000;stroke-width:1.11234" />
      <path
         d="m 3.4815202,-124.75737 c -4.37133748,-3.48004 -3.25673242,-5.88969 -2.5048722,-8.37005"
         id="path158"
         style="fill:none;stroke:#000000;stroke-width:1.11234" />
      <path
         d="m -7.9129484,-125.48624 c 4.6923699,-2.9357 3.8250909,-5.46438 3.3252521,-8.01981"
         id="path160"
         style="fill:none;stroke:#000000;stroke-width:1.11234" />
      <path
         d="m 58.128016,-77.336834 c 1.507187,-65.918116 -59.9342499,-82.149916 -59.9342499,-82.149916 -37.9506231,23.23991 -59.7704581,49.17311 -61.8478871,83.116289 -1.11496,26.525853 61.725043,28.191346 59.1944555,36.462845 7.1066651,-15.613752 62.9398345,-17.342031 62.5849515,-37.431948 z"
         id="path162"
         style="fill:none;stroke:#000000;stroke-width:1.11234" />
      <path
         d="M 91.162147,49.056049 A 6.1225477,18.865844 14.024 0 1 80.621308,65.408777 6.1225477,18.865844 14.024 0 1 79.499223,45.233688 6.1225477,18.865844 14.024 0 1 90.040062,28.880961 6.1225477,18.865844 14.024 0 1 91.162147,49.056049 Z"
         fill="#fafafa"
         stroke-linecap="round"
         stroke-miterlimit="0"
         stroke-width="1.17988"
         id="path182"
         style="stroke:#000000" />
      <path
         d="M -4.325902,-40.156034 C -85.9899,-51.23411 -76.883061,-70.659577 -76.752027,-74.298491 c 10.280136,-54.354399 37.666717,-82.794159 72.1968161,-104.878799 49.7272739,17.49491 70.9656459,51.76922 80.0834049,104.499347 -8.676612,30.342482 -46.71623,30.986731 -79.8568259,34.521909 z"
         id="path168"
         style="fill:none;stroke:#000000;stroke-width:1.11234" />
      <path
         d="m -31.411651,-44.196238 c -5.526072,0.907217 -12.779877,13.291727 -13.377991,18.988415 -4.212732,40.123598 -14.340542,115.779157 -27.645372,138.437063 l 8.054475,-2.26295 4.678994,8.43256 7.041148,-5.44336 5.005213,7.73426"
         id="path170"
         style="fill:none;stroke:#000000;stroke-width:1.11234" />
      <path
         d="M 31.290684,-44.223537 C 49.518831,138.11526 106.94624,187.46854 100.70304,187.94627 L 64.674239,179.7624 c -3.919271,11.86045 -18.761563,24.44105 -24.476815,18.45117 -10.128628,-10.61563 -19.081503,2.45055 -37.3773508,3.70498 -12.0081429,0.82336 -28.8410542,-19.74431 -39.3292072,-9.18519 -14.062914,14.15846 -38.927916,7.66793 -52.47898,9.66428 53.658283,-38.57303 49.069375,-162.612768 57.826792,-246.979335"
         id="path172"
         style="fill:none;stroke:#000000;stroke-width:1.11234" />
    </a>
    <g
       id="g1142">
      <path
         d="m 31.563671,-43.486472 c 6.716567,-0.700757 15.530219,7.837177 20.187646,21.319722 8.947961,25.9026245 33.28255,52.885731 38.543005,50.974823"
         id="path174"
         style="fill:none;stroke:#000000;stroke-width:1.11234" />
      <path
         d="M 37.804149,6.4974089 C 47.712751,30.570203 57.844656,44.218724 79.830466,65.003938"
         id="path176"
         style="fill:none;stroke:#000000;stroke-width:1.11234" />
      <path
         d="m 93.438857,41.139433 c 3.564662,1.001124 8.051203,1.011361 8.549673,-0.982343 0.49856,-1.993705 -0.54439,-4.167963 -4.10927,-5.169005 -3.564661,-1.001125 -8.301528,-0.450019 -8.800002,1.543685 -0.498556,1.993705 0.794746,3.606702 4.359599,4.607744 z"
         stroke-width="1.04972"
         id="path184"
         style="fill:#ffffff;stroke:#000000;stroke-linecap:round;stroke-miterlimit:0" />
      <path
         d="m 92.125791,47.281635 c 3.792332,1.00137 8.559229,0.990751 9.080359,-1.039015 0.52105,-2.029766 -0.59661,-4.235936 -4.388808,-5.237251 -3.792333,-1.001343 -8.822933,-0.418735 -9.344065,1.611031 -0.521077,2.029794 0.860181,3.663756 4.652241,4.665344 z"
         stroke-width="1.09118"
         id="path186"
         style="fill:#ffffff;stroke:#000000;stroke-linecap:round;stroke-miterlimit:0" />
      <path
         d="m 90.373215,52.386488 c 3.542004,0.731141 7.940367,0.51944 8.33456,-1.310773 0.394111,-1.83024 -0.731468,-3.748109 -4.273608,-4.479167 -3.542004,-0.731114 -8.159302,0.0012 -8.553222,1.83155 -0.394111,1.83024 0.950267,3.22725 4.49227,3.958308 z"
         stroke-width="0.990396"
         id="path188"
         style="fill:#ffffff;stroke:#000000;stroke-linecap:round;stroke-miterlimit:0" />
      <path
         d="m 84.037192,38.627954 c -0.887234,4.066138 -0.930803,9.172902 0.777112,9.723244 1.707941,0.550341 3.582951,-0.655442 4.469885,-4.72158 0.887235,-4.066138 0.450783,-9.452987 -1.257159,-10.003328 -1.707914,-0.550369 -3.102767,0.93558 -3.989974,5.001664 z"
         stroke-width="1.0377"
         id="path190"
         style="fill:#ffffff;stroke:#000000;stroke-linecap:round;stroke-miterlimit:0" />
    </g>
  </g>
</svg>
