<?xml version="1.0" encoding="UTF-8" standalone="no"?>
<svg
   width="210mm"
   height="297mm"
   version="1.1"
   viewBox="0 0 210 297"
   id="svg196"
   xmlns="http://www.w3.org/2000/svg"
   xmlns:svg="http://www.w3.org/2000/svg">
  <defs
     id="defs200" />
  <g
     transform="matrix(.11562 .039322 -.035898 .12665 19.016 -12.489)"
     fill="#fafafa"
     stroke="#000"
     stroke-width=".765"
     id="scythe">
    <path
       d="m141.25 74.985v3.9031c2.3174 0.35966 4.6825 0.75036 7.0843 1.1617v-5.0648zm0 25.249-2.2558 241.94 7.5015-0.59789 1.8386-238.78z"
       stroke-linecap="round"
       stroke-miterlimit="0"
       id="path132" />
    <path
       d="m152.15 80.141-0.70318 25.628c-37.608-18.309-95.316-8.0714-118.22-2.478 34.623-32.609 104.05-25.819 118.92-23.15z"
       id="path134" />
  </g>
  <g
     transform="matrix(.23789 0 0 .23789 -6.2082 -17.523)"
     stroke="#000"
     id="grimreaper">
    <g
       id="g144">
      <path
         d="m59.1 104.23c0 4.6467-2.3237 10.114-6.2913 10.114-3.9676 0-7.4659-1.9325-7.4659-6.5792 0-4.6467 3.4983-10.248 7.4659-10.248 3.9676 0 6.2913 2.0664 6.2913 6.7132z"
         stroke-linecap="round"
         stroke-miterlimit="0"
         stroke-width=".53264"
         id="path138" />
      <path
         d="m61.505 104.13c0 4.6467 2.3237 10.114 6.2913 10.114 3.9676 0 7.4659-1.9325 7.4659-6.5792 0-4.6467-3.4983-10.248-7.4659-10.248-3.9676 0-6.2913 2.0664-6.2913 6.7131z"
         stroke-linecap="round"
         stroke-miterlimit="0"
         stroke-width=".53264"
         id="path140" />
      <path
         d="m61.979 115.69c0.0904 1.0869-0.2653 1.1621-0.72313 1.4089s-0.97842-0.43445-0.97842-0.43445-0.48584 0.67934-0.94367 0.43253-0.81352-0.32198-0.72313-1.4089c0.0904-1.0869 1.6842-2.8229 1.6842-2.8229s1.5938 1.7379 1.6842 2.8248z"
         stroke-width=".016836px"
         id="path142" />
    </g>
    <g
       fill="none"
       id="g180">
      <g
         stroke-width=".40747"
         id="g164">
        <path
           d="m39.373 108.28c-0.79915 6.6452 9.2361 11.274 13.389 8.1162"
           id="path146" />
        <path
           d="m81.756 107.57c0.49311 3.6838-9.7708 12.138-15.184 9.0214"
           id="path148" />
        <path
           d="m49.487 117.43c0.5673 3.2749 1.3467 3.1618 3.1275 4.139 2.3367 1.2822 18.008 2.0127 17.985-4.3564"
           id="path150" />
        <path
           d="m54.804 122.2 0.10068-2.2058"
           id="path152" />
        <path
           d="m60.003 122.54 0.0649-2.266"
           id="path154" />
        <path
           d="m65.074 121.95 0.0639-2.5827"
           id="path156" />
        <path
           d="m62.527 98.029c-1.6013-1.2748-1.193-2.1575-0.91758-3.0661"
           id="path158" />
        <path
           d="m58.353 97.762c1.7189-1.0754 1.4012-2.0017 1.2181-2.9378"
           id="path160" />
        <path
           d="m82.545 115.4c0.55211-24.147-21.955-30.093-21.955-30.093-13.902 8.5132-21.895 18.013-22.656 30.447-0.40843 9.7169 22.611 10.327 21.684 13.357 2.6033-5.7196 23.056-6.3527 22.926-13.712z"
           id="path162" />
      </g>
      <g
         stroke-width=".40747"
         id="g178">
        <path
           d="m94.646 161.7a2.2428 6.9109 14.024 0 1-3.8613 5.9903 2.2428 6.9109 14.024 0 1-0.41104-7.3905 2.2428 6.9109 14.024 0 1 3.8613-5.9903 2.2428 6.9109 14.024 0 1 0.41104 7.3905z"
           fill="#fafafa"
           stroke-linecap="round"
           stroke-miterlimit="0"
           stroke-width=".43221"
           id="path182" />
        <path
           d="m59.667 129.02c-29.915-4.0581-26.579-11.174-26.531-12.507 3.7658-19.911 13.798-30.329 26.447-38.419 18.216 6.4087 25.996 18.964 29.336 38.28-3.1784 11.115-17.113 11.351-29.253 12.646z"
           id="path168" />
        <path
           d="m49.745 127.54c-2.0243 0.33233-4.6815 4.869-4.9006 6.9558-1.5432 14.698-5.2532 42.412-10.127 50.712l2.9505-0.82896 1.714 3.089 2.5793-1.994 1.8335 2.8332"
           id="path170" />
        <path
           d="m72.714 127.53c6.6773 66.794 27.714 84.873 25.427 85.048l-13.198-2.9979c-1.4357 4.3447-6.8727 8.9532-8.9663 6.759-3.7103-3.8887-6.9899 0.89768-13.692 1.3572-4.3988 0.30161-10.565-7.2327-14.407-3.3647-5.1515 5.1865-14.26 2.8089-19.224 3.5402 19.656-14.13 17.975-59.568 21.183-90.473"
           id="path172" />
        <path
           d="m72.814 127.8c2.4604-0.2567 5.689 2.8709 7.3951 7.8098 3.2778 9.4886 12.192 19.373 14.119 18.673"
           id="path174" />
        <path
           d="m75.1 146.11c3.6297 8.8183 7.3412 13.818 15.395 21.432"
           id="path176" />
      </g>
    </g>
    <g
       fill="#fff"
       stroke-linecap="round"
       stroke-miterlimit="0"
       id="g192">
      <path
         d="m95.48 158.8c1.3058 0.36673 2.9493 0.37048 3.1319-0.35985 0.18263-0.73033-0.19942-1.5268-1.5053-1.8935-1.3058-0.36673-3.041-0.16485-3.2236 0.56548-0.18263 0.73033 0.29113 1.3212 1.597 1.6879z"
         stroke-width=".38453"
         id="path184" />
      <path
         d="m94.999 161.05c1.3892 0.36682 3.1354 0.36293 3.3263-0.38061 0.19087-0.74354-0.21855-1.5517-1.6077-1.9185-1.3892-0.36681-3.232-0.15339-3.4229 0.59015-0.19088 0.74355 0.3151 1.3421 1.7042 1.709z"
         stroke-width=".39972"
         id="path186" />
      <path
         d="m94.357 162.92c1.2975 0.26783 2.9087 0.19028 3.0531-0.48016 0.14437-0.67045-0.26795-1.373-1.5655-1.6408-1.2975-0.26782-2.9889 4.3e-4 -3.1332 0.67093-0.14437 0.67045 0.3481 1.1822 1.6456 1.45z"
         stroke-width=".3628"
         id="path188" />
      <path
         d="m92.036 157.88c-0.32501 1.4895-0.34097 3.3602 0.28467 3.5618 0.62565 0.2016 1.3125-0.2401 1.6374-1.7296 0.32501-1.4895 0.16513-3.4628-0.46052-3.6644-0.62564-0.20161-1.1366 0.34272-1.4616 1.8322z"
         stroke-width=".38013"
         id="path190" />
    </g>
  </g>
</svg>
