<svg id="svg196" width="210mm" height="297mm" version="1.1" viewBox="0 0 210 297" xmlns="http://www.w3.org/2000/svg"><g id="viikate" fill="#fafafa" stroke="#000" stroke-width=".56"><path id="path132" d="m24-92-.82 2.9c1.5.8 3 1.6 4.5 2.5l1.1-3.7zm-5.3 19-52 178 5.2 1.3 51-176z" stroke-linecap="round" stroke-miterlimit="0"/><path id="path134" d="m31-86-5.8 19c-21-22-63-28-79-29 30-16 75 4.8 85 10z"/></g><g id="viikatemies" stroke="#000"><g id="g964"><path id="path138" d="m-.79-66c0 6.4-3.2 14-8.7 14-5.5 0-10-2.7-10-9.1 0-6.4 4.8-14 10-14 5.5 0 8.7 2.9 8.7 9.3z" stroke-linecap="round" stroke-miterlimit="0" stroke-width=".74"/><path id="path140" d="m2.5-66c0 6.4 3.2 14 8.7 14 5.5 0 10-2.7 10-9.1 0-6.4-4.8-14-10-14-5.5 0-8.7 2.9-8.7 9.3z" stroke-linecap="round" stroke-miterlimit="0" stroke-width=".74"/><path id="path142" d="m3.2-50c.13 1.5-.37 1.6-1 2-.63.34-1.4-.6-1.4-.6s-.67.94-1.3.6c-.63-.34-1.1-.45-1-2 .13-1.5 2.3-3.9 2.3-3.9s2.2 2.4 2.3 3.9z" stroke-width=".023px"/></g><path id="path146" d="m-28-60c-1.1 9.2 13 16 19 11" fill="none" stroke-width=".56"/><path id="path148" d="m31-61c.68 5.1-14 17-21 13" fill="none" stroke-width=".56"/><path id="path150" d="m-14-48c.79 4.5 1.9 4.4 4.3 5.7 3.2 1.8 25 2.8 25-6" fill="none" stroke-width=".56"/><path id="path152" d="m-6.7-41 .14-3.1" fill="none" stroke-width=".56"/><path id="path154" d="m.46-41 .09-3.1" fill="none" stroke-width=".56"/><path id="path156" d="m7.5-41 .089-3.6" fill="none" stroke-width=".56"/><path id="path158" d="m4-75c-2.2-1.8-1.7-3-1.3-4.2" fill="none" stroke-width=".56"/><path id="path160" d="m-1.8-75c2.4-1.5 1.9-2.8 1.7-4.1" fill="none" stroke-width=".56"/><path id="path162" d="m32-51c.77-33-30-42-30-42-19 12-30 25-31 42-.57 13 31 14 30 19 3.6-7.9 32-8.8 32-19z" fill="none" stroke-width=".56"/><path id="path182" d="m48 14a3.1 9.6 14 01-5.4 8.3 3.1 9.6 14 01-.57-10 3.1 9.6 14 015.4-8.3 3.1 9.6 14 01.57 10z" fill="#fafafa" stroke-linecap="round" stroke-miterlimit="0" stroke-width=".6"/><path id="path168" d="m-.0091-32c-41-5.6-37-15-37-17 5.2-28 19-42 37-53 25 8.9 36 26 41 53-4.4 15-24 16-41 18z" fill="none" stroke-width=".56"/><path id="path170" d="m-14-34c-2.8.46-6.5 6.7-6.8 9.6-2.1 20-7.3 59-14 70l4.1-1.1 2.4 4.3 3.6-2.8 2.5 3.9" fill="none" stroke-width=".56"/><path id="path172" d="m18-34c9.3 93 38 118 35 118l-18-4.2c-2 6-9.5 12-12 9.4-5.1-5.4-9.7 1.2-19 1.9-6.1.42-15-10-20-4.7-7.1 7.2-20 3.9-27 4.9 27-20 25-83 29-125" fill="none" stroke-width=".56"/><path id="path174" d="m18-33c3.4-.36 7.9 4 10 11 4.5 13 17 27 20 26" fill="none" stroke-width=".56"/><path id="path176" d="m21-8c5 12 10 19 21 30" fill="none" stroke-width=".56"/><path id="path184" d="m50 9.6c1.8.51 4.1.51 4.3-.5.25-1-.28-2.1-2.1-2.6-1.8-.51-4.2-.23-4.5.78-.25 1 .4 1.8 2.2 2.3z" fill="#fff" stroke-linecap="round" stroke-miterlimit="0" stroke-width=".53"/><path id="path186" d="m49 13c1.9.51 4.3.5 4.6-.53.26-1-.3-2.2-2.2-2.7-1.9-.51-4.5-.21-4.7.82-.26 1 .44 1.9 2.4 2.4z" fill="#fff" stroke-linecap="round" stroke-miterlimit="0" stroke-width=".55"/><path id="path188" d="m48 15c1.8.37 4 .26 4.2-.67.2-.93-.37-1.9-2.2-2.3-1.8-.37-4.1 6e-4-4.3.93-.2.93.48 1.6 2.3 2z" fill="#fff" stroke-linecap="round" stroke-miterlimit="0" stroke-width=".5"/><path id="path190" d="m45 8.3c-.45 2.1-.47 4.7.39 4.9.87.28 1.8-.33 2.3-2.4.45-2.1.23-4.8-.64-5.1-.87-.28-1.6.47-2 2.5z" fill="#fff" stroke-linecap="round" stroke-miterlimit="0" stroke-width=".53"/></g></svg>
