<svg id="svg5" width="210mm" height="297mm" version="1.1" viewBox="0 0 210 297" xmlns="http://www.w3.org/2000/svg"><g id="g4161"><path id="kuu" d="m136 57a47 47 0 00-47 47 47 47 0 0047 47 47 47 0 0016-2.7 47 47 0 01-33-45 47 47 0 0132-45 47 47 0 00-14-2.2z" fill="none" stroke="#000" stroke-linecap="round" stroke-miterlimit="0" stroke-width="1.4"/></g><g id="vuoristo" fill="none" stroke="#000"><rect id="rect234" x=".72" y=".72" width="739" height="554" stroke-linecap="round" stroke-miterlimit="0" stroke-width="1.4"/><path id="path353" d="m1.6 340 109-33 105 33 15-43 22 42 54-42 21 44 97-20 24 17 53-31 35 28 44-26 54 28 44-55 14 32 46-26" stroke-width=".72px"/><path id="path556" d="m1.2 256 62-74s5.1 43 44 68c39 25 89 21 89 21s59-27 92-58c33-31 32-36 32-36s6 39 17 57c11 18 72 39 72 39l140 3.6s54-13 89-47c34-34 71-82 71-82s20 57 31 74" stroke-width=".72px"/><path id="path882" d="m266 232c23 7.4 47 8.7 71 4.1" stroke-width=".72px"/><path id="path884" d="m25 228c19 3.3 39 2 58 .077" stroke-width=".72px"/></g></svg>
